<svg xmlns="http://www.w3.org/2000/svg" width="100" height="200" viewBox="0 0 36 48">
    <g fill="none" fill-rule="evenodd">
        <g fill="#FEFEFE">
            <g>
                <g>
                    <path d="M34.545 10.605C38.736 24.265 34.068 42.093 18 48 1.932 42.093-2.736 24.265 1.455 10.605zm-17.62 16.74h-4.561c-.753 0-1.363.607-1.363 1.356v6.423c0 1.297 1.056 2.348 2.36 2.348v-7.974h1.401c1.195 0 2.164-.964 2.164-2.153zm3.485-10.013H11c0 1.189.97 2.152 2.164 2.152h7.116c1.303 0 2.359 1.051 2.359 2.348v3.165c0 1.297-1.057 2.348-2.36 2.348-1.2 0-2.168.964-2.168 2.153h2.299c2.535 0 4.59-2.045 4.59-4.566v-3.034c0-2.522-2.055-4.566-4.59-4.566zM19.084 0v5.57h6.465V2.335h2.168v5.391H8.284V2.335h2.167V5.57h6.465V0h2.168z" transform="translate(-170 -6) translate(170 6)"/>
                </g>
            </g>
        </g>
    </g>
</svg>
